<svg xmlns="http://www.w3.org/2000/svg" xmlns:xlink="http://www.w3.org/1999/xlink" width="500" zoomAndPan="magnify" viewBox="0 0 375 374.999991" height="500" preserveAspectRatio="xMidYMid meet" version="1.0"><defs><clipPath id="f496f87881"><path d="M 37.5 37.5 L 337.5 37.5 L 337.5 337.5 L 37.5 337.5 Z M 37.5 37.5 " clip-rule="nonzero"/></clipPath><clipPath id="439d3acd2b"><path d="M 54.75 37.5 L 320.25 37.5 C 324.824219 37.5 329.210938 39.316406 332.449219 42.550781 C 335.683594 45.789062 337.5 50.175781 337.5 54.75 L 337.5 320.25 C 337.5 324.824219 335.683594 329.210938 332.449219 332.449219 C 329.210938 335.683594 324.824219 337.5 320.25 337.5 L 54.75 337.5 C 50.175781 337.5 45.789062 335.683594 42.550781 332.449219 C 39.316406 329.210938 37.5 324.824219 37.5 320.25 L 37.5 54.75 C 37.5 50.175781 39.316406 45.789062 42.550781 42.550781 C 45.789062 39.316406 50.175781 37.5 54.75 37.5 Z M 54.75 37.5 " clip-rule="nonzero"/></clipPath><clipPath id="cf310a6df1"><path d="M 75 64.726562 L 288 64.726562 L 288 305 L 75 305 Z M 75 64.726562 " clip-rule="nonzero"/></clipPath></defs><g clip-path="url(#f496f87881)"><g clip-path="url(#439d3acd2b)"><path fill="#3fb8b1" d="M 37.5 37.5 L 337.5 37.5 L 337.5 337.5 L 37.5 337.5 Z M 37.5 37.5 " fill-opacity="1" fill-rule="nonzero"/></g></g><g clip-path="url(#cf310a6df1)"><path fill="#ffffff" d="M 241.792969 304.765625 C 229.824219 304.707031 217.933594 283.816406 204.167969 259.632812 C 179.179688 215.734375 144.964844 155.632812 75.335938 155.507812 C 74.929688 125.078125 82.796875 77.984375 133.597656 69.480469 C 135.285156 69.195312 137.011719 69.054688 138.722656 69.054688 C 146.714844 69.054688 154.304688 72.074219 160.097656 77.554688 C 172.632812 89.40625 197.75 109.898438 225.101562 113.964844 C 225.101562 113.964844 201.441406 95.148438 187.351562 78.644531 C 187.050781 78.289062 187.035156 77.910156 187.082031 77.65625 C 187.117188 77.4375 187.246094 77.03125 187.691406 76.765625 C 195.285156 72.28125 210.445312 64.757812 226.675781 64.757812 C 249.382812 64.757812 266.578125 79.484375 277.789062 108.523438 C 300.128906 166.40625 277.871094 248.667969 254.929688 288.59375 C 247.679688 301.214844 243.015625 304.535156 241.792969 304.765625 Z M 241.792969 304.765625 " fill-opacity="1" fill-rule="nonzero"/></g><path fill="#ffffff" d="M 142.828125 224.234375 C 113.628906 205.925781 97.128906 202.351562 77.6875 198.660156 C 77.691406 198.699219 77.699219 198.738281 77.703125 198.777344 C 78.839844 205.96875 83.886719 211.933594 90.738281 214.398438 C 136.300781 230.785156 161.449219 256.714844 167.664062 263.742188 C 167.6875 263.613281 167.710938 263.488281 167.734375 263.363281 C 170.132812 249.847656 154.453125 231.527344 142.828125 224.234375 Z M 142.828125 224.234375 " fill-opacity="1" fill-rule="nonzero"/><path fill="#ffffff" d="M 87.351562 182.425781 C 143.84375 201.234375 170.808594 235.300781 170.808594 235.300781 C 163.824219 224.472656 154.980469 177.417969 75.320312 166.054688 C 75.320312 166.09375 75.320312 166.136719 75.324219 166.183594 C 75.449219 173.585938 80.324219 180.085938 87.351562 182.425781 Z M 87.351562 182.425781 " fill-opacity="1" fill-rule="nonzero"/><path fill="#ffffff" d="M 146.324219 284.671875 C 131.070312 275.222656 116.691406 268.488281 103.695312 263.707031 L 103.691406 263.707031 C 123.472656 304.90625 137.828125 310.242188 148.054688 300.710938 C 152.914062 296.183594 151.972656 288.171875 146.324219 284.671875 Z M 146.324219 284.671875 " fill-opacity="1" fill-rule="nonzero"/><path fill="#ffffff" d="M 148.519531 257.328125 C 127.460938 244.203125 108.066406 236.257812 91.625 231.496094 C 91.644531 231.550781 91.664062 231.601562 91.683594 231.652344 C 95.183594 241.0625 102.214844 248.734375 111.191406 253.226562 C 132.636719 263.964844 147.632812 276.042969 156.453125 284.296875 L 156.523438 284.136719 C 161.007812 274.464844 157.566406 262.96875 148.519531 257.328125 Z M 148.519531 257.328125 " fill-opacity="1" fill-rule="nonzero"/></svg>